<svg width="1987" height="2419" viewBox="0 0 1987 2419" fill="none" xmlns="http://www.w3.org/2000/svg">
<rect width="507.104" height="2164.24" transform="matrix(-0.990469 0.137736 -0.133256 -0.991082 790.668 2348.94)" fill="#D9D9D9"/>
<rect width="439.649" height="2164.24" transform="matrix(-0.990469 0.137736 -0.133256 -0.991082 760.164 2356.18)" fill="#A9AEAB"/>
<rect width="34.2349" height="209.657" transform="matrix(-0.990469 0.137736 -0.133256 -0.991082 338.297 882.65)" fill="#D9D9D9"/>
<rect width="34.2349" height="209.657" transform="matrix(-0.990469 0.137736 -0.133256 -0.991082 304.297 479.926)" fill="#D9D9D9"/>
<rect width="34.2349" height="209.657" transform="matrix(-0.990469 0.137736 -0.133256 -0.991082 515.297 2094.89)" fill="#D9D9D9"/>
<rect width="34.2349" height="209.657" transform="matrix(-0.990469 0.137736 -0.133256 -0.991082 460.297 1694.2)" fill="#D9D9D9"/>
<rect width="34.2349" height="209.657" transform="matrix(-0.990469 0.137736 -0.133256 -0.991082 400.297 1288.43)" fill="#D9D9D9"/>
<path d="M383.187 2375.26L335.986 2307.74L411.541 2297.59L383.187 2375.26Z" fill="#D9D9D9"/>
<path d="M483.187 2363.05L435.986 2295.53L511.541 2285.39L483.187 2363.05Z" fill="#D9D9D9"/>
<path d="M695.187 2338.65L647.986 2271.13L723.541 2260.98L695.187 2338.65Z" fill="#D9D9D9"/>
<path d="M589.187 2350.85L541.986 2283.33L617.541 2273.19L589.187 2350.85Z" fill="#D9D9D9"/>
<rect width="525.938" height="1430.19" transform="matrix(-0.134691 -0.990888 0.990048 -0.140731 570.191 722.419)" fill="#D9D9D9"/>
<rect width="525.938" height="1430.19" transform="matrix(-0.134691 -0.990888 0.990048 -0.140731 570.191 722.419)" fill="#D9D9D9"/>
<rect width="456.742" height="1934.57" transform="matrix(-0.134691 -0.990888 0.990048 -0.140731 65.5352 754.38)" fill="#A9AEAB"/>
<rect width="34.3399" height="187.408" transform="matrix(-0.134691 -0.990888 0.990048 -0.140731 415.949 483.298)" fill="#D9D9D9"/>
<rect width="34.3399" height="187.408" transform="matrix(-0.134691 -0.990888 0.990048 -0.140731 746.785 436.272)" fill="#D9D9D9"/>
<rect width="34.3399" height="187.408" transform="matrix(-0.134691 -0.990888 0.990048 -0.140731 1077.62 389.245)" fill="#D9D9D9"/>
<rect width="34.3399" height="187.408" transform="matrix(-0.134691 -0.990888 0.990048 -0.140731 1077.62 389.245)" fill="#D9D9D9"/>
<rect width="34.3399" height="187.408" transform="matrix(-0.134691 -0.990888 0.990048 -0.140731 1408.45 342.217)" fill="#D9D9D9"/>
<rect width="34.3399" height="187.408" transform="matrix(-0.134691 -0.990888 0.990048 -0.140731 1739.29 295.19)" fill="#D9D9D9"/>
<rect x="4" y="276.674" width="515.135" height="27.9683" transform="rotate(-8.67235 4 276.674)" fill="#D9D9D9"/>
<rect x="38.3008" y="276.718" width="515.135" height="35.0751" transform="rotate(82.5794 38.3008 276.718)" fill="#D9D9D9"/>
</svg>
