<svg width="1037" height="2291" viewBox="0 0 1037 2291" fill="none" xmlns="http://www.w3.org/2000/svg">
<rect width="507.104" height="2164.24" transform="matrix(-0.999696 0.0246488 -0.020129 -0.999797 793.492 2220.7)" fill="#D9D9D9"/>
<rect width="439.649" height="2164.24" transform="matrix(-0.999696 0.0246488 -0.020129 -0.999797 762.363 2224.44)" fill="#A9AEAB"/>
<rect width="34.2349" height="209.657" transform="matrix(-0.999696 0.0246488 -0.020129 -0.999797 510.133 712.604)" fill="#D9D9D9"/>
<rect width="34.2349" height="209.657" transform="matrix(-0.999696 0.0246488 -0.020129 -0.999797 521.973 308.62)" fill="#D9D9D9"/>
<rect width="34.2349" height="209.657" transform="matrix(-0.999696 0.0246488 -0.020129 -0.999797 548.672 1937.1)" fill="#D9D9D9"/>
<rect width="34.2349" height="209.657" transform="matrix(-0.999696 0.0246488 -0.020129 -0.999797 539.414 1532.75)" fill="#D9D9D9"/>
<rect width="34.2349" height="209.657" transform="matrix(-0.999696 0.0246488 -0.020129 -0.999797 525.77 1122.79)" fill="#D9D9D9"/>
<path d="M385.652 2200.69L346.404 2128.26L422.621 2126.74L385.652 2200.69Z" fill="#D9D9D9"/>
<path d="M486.39 2199.89L447.142 2127.46L523.359 2125.94L486.39 2199.89Z" fill="#D9D9D9"/>
<path d="M699.793 2199.66L660.544 2127.22L736.762 2125.7L699.793 2199.66Z" fill="#D9D9D9"/>
<path d="M593.09 2199.77L553.841 2127.34L630.059 2125.82L593.09 2199.77Z" fill="#D9D9D9"/>
<rect x="280.707" y="76.5889" width="515.135" height="35.0751" transform="rotate(89.0838 280.707 76.5889)" fill="#D9D9D9"/>
</svg>
