<svg width="2295" height="990" viewBox="0 0 2295 990" fill="none" xmlns="http://www.w3.org/2000/svg">
<rect width="463.231" height="2164.24" transform="matrix(0.0294541 0.999566 -0.999689 0.0249347 2218.86 234.515)" fill="#D9D9D9"/>
<rect width="439.649" height="2164.24" transform="matrix(0.0294541 0.999566 -0.999689 0.0249347 2226.31 261.072)" fill="#A9AEAB"/>
<rect width="34.2349" height="209.657" transform="matrix(0.0294541 0.999566 -0.999689 0.0249347 847.562 498.167)" fill="#D9D9D9"/>
<rect width="34.2349" height="209.657" transform="matrix(0.0294541 0.999566 -0.999689 0.0249347 441.168 504.855)" fill="#D9D9D9"/>
<rect width="34.2349" height="209.657" transform="matrix(0.0294541 0.999566 -0.999689 0.0249347 2069.5 470.333)" fill="#D9D9D9"/>
<rect width="34.2349" height="209.657" transform="matrix(0.0294541 0.999566 -0.999689 0.0249347 1665.21 481.53)" fill="#D9D9D9"/>
<rect width="34.2349" height="209.657" transform="matrix(0.0294541 0.999566 -0.999689 0.0249347 1255.32 497.147)" fill="#D9D9D9"/>
<rect x="541.875" y="730.233" width="1693.82" height="32.0634" transform="rotate(-1.29301 541.875 730.233)" fill="#D9D9D9"/>
<rect x="94.1484" y="297.998" width="457.998" height="39.2271" transform="rotate(88.7573 94.1484 297.998)" fill="#D9D9D9"/>
</svg>
