<svg width="1968" height="2245" viewBox="0 0 1968 2245" fill="none" xmlns="http://www.w3.org/2000/svg">
<rect width="507.104" height="2164.24" transform="matrix(-0.706776 0.707437 -0.704235 -0.709967 1925.6 1711.29)" fill="#D9D9D9"/>
<rect width="439.649" height="2164.24" transform="matrix(-0.706776 0.707437 -0.704235 -0.709967 1905.65 1735.47)" fill="#A9AEAB"/>
<rect width="34.2349" height="209.657" transform="matrix(-0.706776 0.707437 -0.704235 -0.709967 680.168 814.892)" fill="#D9D9D9"/>
<rect width="34.2349" height="209.657" transform="matrix(-0.706776 0.707437 -0.704235 -0.709967 410.07 514.241)" fill="#D9D9D9"/>
<rect width="34.2349" height="209.657" transform="matrix(-0.706776 0.707437 -0.704235 -0.709967 1552.73 1674.84)" fill="#D9D9D9"/>
<rect width="34.2349" height="209.657" transform="matrix(-0.706776 0.707437 -0.704235 -0.709967 1267.11 1388.48)" fill="#D9D9D9"/>
<rect width="34.2349" height="209.657" transform="matrix(-0.706776 0.707437 -0.704235 -0.709967 974.438 1101.08)" fill="#D9D9D9"/>
<path d="M1616.53 1978.13L1538.15 1952.76L1592.28 1899.09L1616.53 1978.13Z" fill="#D9D9D9"/>
<path d="M1688.91 1908.06L1610.53 1882.7L1664.66 1829.02L1688.91 1908.06Z" fill="#D9D9D9"/>
<path d="M1843.25 1760.69L1764.87 1735.32L1819 1681.65L1843.25 1760.69Z" fill="#D9D9D9"/>
<path d="M1766.08 1834.38L1687.7 1809.01L1741.83 1755.33L1766.08 1834.38Z" fill="#D9D9D9"/>
<rect x="75.3398" y="512.675" width="515.135" height="35.0751" transform="rotate(45.4695 75.3398 512.675)" fill="#D9D9D9"/>
</svg>
